<?xml version="1.0" standalone="no"?>
<!DOCTYPE svg PUBLIC "-//W3C//DTD SVG 20010904//EN"
 "http://www.w3.org/TR/2001/REC-SVG-20010904/DTD/svg10.dtd">
<svg version="1.0" xmlns="http://www.w3.org/2000/svg"
 width="512.000000pt" height="512.000000pt" viewBox="0 0 512.000000 512.000000"
 preserveAspectRatio="xMidYMid meet">

<g transform="translate(0.000000,500.000000) scale(0.100000,-0.100000)"
fill="#00CED1" stroke="none">
<path d="M1226 3897 c-19 -19 -24 -37 -29 -112 -34 -468 -416 -825 -883 -825
l-74 0 0 -82 0 -81 123 6 c67 4 139 11 160 16 l37 9 0 -94 0 -94 -175 0 c-239
0 -225 15 -225 -240 0 -189 0 -191 25 -215 l24 -25 496 0 495 0 0 -157 0 -158
-33 -15 c-31 -14 -36 -25 -119 -270 -47 -140 -87 -268 -87 -283 -1 -17 9 -37
24 -52 l24 -25 431 0 431 0 24 25 c15 15 25 35 24 52 0 15 -40 143 -87 283
-83 245 -88 256 -119 270 l-33 15 0 158 0 157 880 0 880 0 0 -157 0 -158 -33
-15 c-31 -14 -36 -25 -119 -270 -47 -140 -87 -268 -87 -283 -1 -17 9 -37 24
-52 l24 -25 431 0 431 0 24 25 c15 15 25 35 24 52 0 15 -40 143 -87 283 -83
245 -88 256 -119 270 l-33 15 0 158 0 157 495 0 496 0 24 25 c25 24 25 26 25
215 0 255 14 240 -225 240 l-175 0 0 94 0 94 38 -9 c20 -5 92 -12 159 -16
l123 -6 0 80 0 80 -112 6 c-238 12 -428 96 -592 260 -155 156 -256 391 -256
599 0 39 -5 54 -25 73 -24 25 -26 25 -215 25 -237 0 -233 2 -243 -135 -29
-410 -327 -741 -728 -811 -408 -71 -813 158 -968 547 -33 81 -61 221 -61 301
0 39 -5 54 -25 73 -24 25 -26 25 -215 25 -186 0 -192 -1 -214 -23z m294 -1097
l0 -960 -80 0 -80 0 0 960 0 960 80 0 80 0 0 -960z m2240 0 l0 -960 -80 0 -80
0 0 960 0 960 80 0 80 0 0 -960z m-2560 160 l0 -320 -80 0 -80 0 0 226 0 226
61 66 c33 37 68 79 77 94 9 16 18 28 19 28 2 0 3 -144 3 -320z m604 171 l36
-35 0 -228 0 -228 -80 0 -80 0 0 321 0 321 44 -59 c24 -32 60 -74 80 -92z
m1636 -171 l0 -320 -80 0 -80 0 0 226 0 226 61 66 c33 37 68 79 77 94 9 16 18
28 19 28 2 0 3 -144 3 -320z m604 171 l36 -35 0 -228 0 -228 -80 0 -80 0 0
321 0 321 44 -59 c24 -32 60 -74 80 -92z m-3164 -331 l0 -160 -80 0 -80 0 0
119 0 120 78 40 c42 22 78 40 80 40 1 1 2 -71 2 -159z m1280 -40 l0 -120 -80
0 -80 0 0 160 0 160 80 -40 80 -40 0 -120z m960 40 l0 -160 -80 0 -80 0 0 119
0 120 78 40 c42 22 78 40 80 40 1 1 2 -71 2 -159z m1280 -40 l0 -120 -80 0
-80 0 0 160 0 160 80 -40 80 -40 0 -120z m-1942 44 c21 -4 22 -9 22 -84 l0
-80 -80 0 -80 0 0 93 0 94 58 -10 c31 -5 67 -11 80 -13z m342 -69 l0 -95 -80
0 -80 0 0 80 c0 89 -11 79 100 98 30 5 56 10 58 11 1 0 2 -42 2 -94z m-1600
-335 l0 -80 -440 0 -440 0 0 80 0 80 440 0 440 0 0 -80z m2240 0 l0 -80 -880
0 -880 0 0 80 0 80 880 0 880 0 0 -80z m1360 0 l0 -80 -440 0 -440 0 0 80 0
80 440 0 440 0 0 -80z m-3124 -882 l52 -158 -288 0 -289 0 50 148 c27 81 51
153 54 160 3 10 46 12 186 10 l182 -3 53 -157z m2240 0 l52 -158 -288 0 -289
0 50 148 c27 81 51 153 54 160 3 10 46 12 186 10 l182 -3 53 -157z"/>
</g>
</svg>
